<svg width="38" height="30" fill="none" xmlns="http://www.w3.org/2000/svg"><path d="M34.259 29.872 3.792 30c-2.018.012-3.687-1.645-3.699-3.664L0 3.827C-.012 1.81 1.645.14 3.664.128L34.131 0c2.018-.012 3.687 1.645 3.699 3.664l.093 22.509c.012 2.03-1.645 3.699-3.664 3.699Z" fill="#B2AEA9"/><path d="M14.656 25.974a.442.442 0 0 1-.396-.233c-.117-.21-.024-.479.186-.595.63-.327 1.494-.945 1.984-1.996.63-1.341.455-2.8.187-2.917-.07-.035-.327.105-.49.187-.409.21-.98.502-1.646.28-.653-.222-.968-.793-1.12-1.073-1.003-1.81-1.33-6.535-.292-8.892.35-.782.817-1.248 1.4-1.388.596-.14 1.086.105 1.483.303.326.163.49.233.583.175.409-.245.397-1.75-.187-2.94-.501-1.05-1.365-1.657-2.007-1.984a.429.429 0 0 1-.186-.584.429.429 0 0 1 .583-.186c.759.385 1.785 1.108 2.392 2.38.607 1.26.899 3.43-.151 4.072-.526.327-1.039.07-1.436-.14-.303-.151-.595-.303-.875-.233-.385.093-.653.537-.805.887-.91 2.053-.63 6.522.257 8.11.151.268.326.56.642.665.291.105.571-.024.968-.234.385-.198.817-.42 1.272-.198.98.467.922 2.579.222 4.084-.596 1.283-1.622 2.007-2.38 2.404a.318.318 0 0 1-.188.046Z" fill="#3D3D3C"/><path d="m13.28 11.529-7.888.035a.44.44 0 0 1-.443-.432.44.44 0 0 1 .431-.443l7.888-.035a.44.44 0 0 1 .444.431.426.426 0 0 1-.432.444Zm.035 7.888-7.888.035a.44.44 0 0 1-.444-.432.44.44 0 0 1 .432-.443l7.888-.035a.44.44 0 0 1 .443.431.44.44 0 0 1-.431.444ZM23.85 25.94a.384.384 0 0 1-.198-.047c-.758-.385-1.785-1.109-2.392-2.38-.723-1.494-.793-3.606.187-4.085.455-.221.887 0 1.272.187.397.199.677.327.968.222.327-.117.514-.467.63-.677.864-1.599 1.109-6.068.187-8.11-.163-.35-.431-.793-.817-.875a.439.439 0 0 1-.326-.525.439.439 0 0 1 .525-.326c.583.14 1.062.595 1.412 1.376 1.062 2.346.77 7.072-.21 8.892-.152.28-.467.863-1.109 1.085-.665.233-1.237-.058-1.645-.268-.163-.082-.432-.21-.49-.187-.269.128-.42 1.587.221 2.917.502 1.05 1.366 1.657 2.008 1.984.21.105.303.373.186.583a.501.501 0 0 1-.408.234ZM22.031 9.743a.449.449 0 0 1-.42-.303c-.945-2.812 1.237-4.994 1.949-5.356.21-.117.478-.023.595.187.117.21.023.478-.187.595-.315.163-2.322 1.902-1.517 4.294a.44.44 0 0 1-.42.583Z" fill="#3D3D3C"/><path d="m32.988 11.447-7.888.035a.44.44 0 0 1-.443-.432.44.44 0 0 1 .432-.443l7.888-.035a.44.44 0 0 1 .443.432.426.426 0 0 1-.432.443Zm.035 7.888-7.888.035a.44.44 0 0 1-.444-.432.44.44 0 0 1 .432-.443l7.888-.035a.44.44 0 0 1 .444.431.426.426 0 0 1-.432.444Z" fill="#3D3D3C"/></svg>