<svg width="108" height="30" fill="none" xmlns="http://www.w3.org/2000/svg"><path d="M22 0a8 8 0 0 1 8 8v14a8 8 0 0 1-8 8H8a8 8 0 0 1-8-8V8a8 8 0 0 1 8-8h14Zm-8.534 3c-1.149 0-2.463.447-3.943 1.34l1.028 1.947c-.994 5.893-1.667 10.085-2.02 12.574C8.176 21.351 8 23.202 8 24.415c0 .915.188 1.574.563 1.979.376.404.972.606 1.789.606s1.667-.277 2.55-.83a3.178 3.178 0 0 1-.595-1.18c-.133-.469-.2-1.012-.2-1.629 0-.766.144-2.096.431-3.989l.422-2.571c1.267.287 2.363.433 3.288.433.972 0 1.712-.202 2.22-.606.53-.425.795-1.021.795-1.787v-.352a.585.585 0 0 1-.034-.191v-.224l-2.45.575a32.88 32.88 0 0 1-3.44-.162l.624-3.796.61-3.623c.467.108.937.2 1.41.273 1.26.17 2.562.255 3.91.255 1.17 0 2.142-.245 2.915-.735C23.602 6.351 24 5.574 24 4.532c0-.532-.056-.979-.166-1.34a2.7 2.7 0 0 0-.398.095c-.11.021-.231.042-.364.064-2.164.425-3.897.724-5.2.894-.864.113-1.85.187-2.956.225-.062-.98-.544-1.47-1.45-1.47Z" fill="#1B212D"/><path d="M100.301 7.521v5.91c.732-.817 1.746-1.222 3.029-1.222 1.277 0 2.29.393 3.022 1.192.73.792 1.087 1.887 1.087 3.269v5.75h-2.652v-5.135c0-.867-.201-1.522-.586-1.98h-.001c-.382-.462-.92-.698-1.632-.698-.717 0-1.266.24-1.662.708h-.001c-.398.466-.604 1.117-.604 1.97v5.135h-2.653V7.52h2.653Zm-8.367 4.688c.81 0 1.559.15 2.247.45l.255.118c.584.29 1.09.674 1.517 1.154l.076.085-.079.084-1.406 1.494-.092.097-.09-.098a2.864 2.864 0 0 0-.875-.646l-.147-.066a3.163 3.163 0 0 0-1.26-.254c-.54 0-1.017.118-1.433.353-.41.236-.732.562-.968.978v.001c-.229.415-.345.895-.345 1.443s.116 1.03.345 1.453l.093.152c.225.345.517.623.875.836l.16.083c.376.18.8.271 1.273.271.446 0 .869-.084 1.27-.254a2.964 2.964 0 0 0 1.011-.71l.09-.1.092.097 1.426 1.474.08.083-.076.087a5.047 5.047 0 0 1-1.772 1.291 5.66 5.66 0 0 1-2.267.45c-1.01 0-1.92-.225-2.728-.68a5.116 5.116 0 0 1-1.901-1.851l-.001-.001v-.001c-.461-.789-.69-1.68-.69-2.67s.229-1.878.69-2.661a5.093 5.093 0 0 1 1.902-1.861v-.001c.808-.454 1.719-.68 2.728-.68Zm-11.524 0c1.023 0 1.924.243 2.701.731h.001c.783.482 1.39 1.154 1.824 2.013.433.854.648 1.844.648 2.967v.437h-7.478c.117.36.298.681.542.964l.11.118c.267.268.585.482.959.641a3.65 3.65 0 0 0 1.445.274c1.012 0 1.95-.33 2.815-.99l.122-.094.066.138.82 1.7.046.094-.085.062c-1.237.9-2.594 1.351-4.067 1.351-1.067 0-2.028-.232-2.882-.699a5.39 5.39 0 0 1-1.833-1.614l-.196-.295c-.495-.81-.741-1.724-.741-2.741 0-.964.223-1.83.671-2.593v-.001a4.954 4.954 0 0 1 1.853-1.802h.001c.788-.442 1.675-.661 2.658-.661Zm.127 2.3c-.47 0-.885.101-1.249.299a2.43 2.43 0 0 0-.892.827 2.72 2.72 0 0 0-.409 1.066h5.103a2.582 2.582 0 0 0-.41-1.084h-.001a2.358 2.358 0 0 0-.9-.808l-.003-.001a2.556 2.556 0 0 0-1.239-.298Zm-9.328-4.546v2.441h2.783v2.399H71.21v3.752c0 .53.142.931.414 1.221.282.294.63.44 1.053.44.376 0 .754-.115 1.135-.352l.16-.1.029.187.332 2.07.016.097-.091.038c-.73.305-1.439.46-2.128.46-.702 0-1.326-.15-1.868-.456a3.287 3.287 0 0 1-1.259-1.268v-.002c-.298-.549-.445-1.182-.445-1.896v-4.191h-1.71v-2.399h1.837V9.963h2.525Zm-9.627 2.246c1.258 0 2.263.384 3.001 1.162.737.778 1.099 1.837 1.099 3.162v5.887h-2.653v-5.39c0-.767-.193-1.352-.564-1.772l-.001-.001c-.363-.417-.87-.631-1.536-.631-.468 0-.879.11-1.235.324-.356.209-.637.51-.841.907-.205.396-.309.86-.309 1.398v5.164h-2.652V12.404h2.226l.006.12.06 1.204a3.56 3.56 0 0 1 1.273-1.047c.625-.316 1.335-.472 2.126-.472Zm-8.078.195V22.42h-2.652V12.404h2.652Zm-1.326-5.02c.377 0 .698.134.957.398.258.258.388.574.388.939 0 .37-.13.691-.386.956l-.001.002a1.306 1.306 0 0 1-.958.387c-.371 0-.69-.129-.948-.387l-.002-.003a1.345 1.345 0 0 1-.376-.955 1.3 1.3 0 0 1 .377-.937c.258-.265.577-.4.949-.4Zm-3.01.137v2.516h-6.465v3.607h6.074v2.506h-6.074v6.27h-2.828V7.52h9.293Z" fill="#1B212D" stroke="#1B212D" stroke-width=".25"/></svg>