<svg width="30" height="30" fill="none" xmlns="http://www.w3.org/2000/svg"><path d="M22 0a8 8 0 0 1 8 8v14a8 8 0 0 1-8 8H8a8 8 0 0 1-8-8V8a8 8 0 0 1 8-8h14Zm-8.534 3c-1.149 0-2.463.447-3.943 1.34l1.028 1.947c-.994 5.893-1.667 10.085-2.02 12.574C8.176 21.351 8 23.202 8 24.415c0 .915.188 1.574.563 1.979.376.404.972.606 1.789.606s1.667-.277 2.55-.83a3.178 3.178 0 0 1-.595-1.18c-.133-.469-.2-1.012-.2-1.629 0-.766.144-2.096.431-3.989l.422-2.571c1.267.287 2.363.433 3.288.433.972 0 1.712-.202 2.22-.606.53-.425.795-1.021.795-1.787v-.352a.585.585 0 0 1-.034-.191v-.224l-2.45.575a32.88 32.88 0 0 1-3.44-.162l.624-3.796.61-3.623c.467.108.937.2 1.41.273 1.26.17 2.562.255 3.91.255 1.17 0 2.142-.245 2.915-.735C23.602 6.351 24 5.574 24 4.532c0-.532-.056-.979-.166-1.34a2.7 2.7 0 0 0-.398.095c-.11.021-.231.042-.364.064-2.164.425-3.897.724-5.2.894-.864.113-1.85.187-2.956.225-.062-.98-.544-1.47-1.45-1.47Z" fill="#1B212D"/></svg>